<svg width="18" height="18" viewBox="0 0 18 18" fill="none" xmlns="http://www.w3.org/2000/svg">
<path d="M3.375 18H14.625C14.8192 18 14.9766 17.8426 14.9766 17.6484V4.78125C14.9766 4.58708 14.8192 4.42969 14.625 4.42969H13.5703V0.351562C13.5703 0.157395 13.4129 0 13.2188 0H4.78125C4.58708 0 4.42969 0.157395 4.42969 0.351562V4.42969H3.375C3.18083 4.42969 3.02344 4.58708 3.02344 4.78125V17.6484C3.02344 17.8426 3.18083 18 3.375 18ZM12.8672 0.703125V4.49016C12.458 4.63528 12.1641 5.02604 12.1641 5.48438V6.53906H5.83594V5.48438C5.83594 5.02608 5.542 4.63528 5.13281 4.49016V0.703125H12.8672ZM3.72656 5.13281H4.78125C4.9751 5.13281 5.13281 5.29052 5.13281 5.48438V6.89062C5.13281 7.08479 5.29021 7.24219 5.48438 7.24219H12.5156C12.7098 7.24219 12.8672 7.08479 12.8672 6.89062V5.48438C12.8672 5.29052 13.0249 5.13281 13.2188 5.13281H14.2734V17.2969H3.72656V5.13281Z" fill="#01A0AC"/>
<path d="M7.94531 5.02734H10.0547C10.8301 5.02734 11.4609 4.3965 11.4609 3.62109C11.4609 2.84569 10.8301 2.21484 10.0547 2.21484C9.79949 2.21484 8.2022 2.21484 7.94531 2.21484C7.16991 2.21484 6.53906 2.84569 6.53906 3.62109C6.53906 4.3965 7.16991 5.02734 7.94531 5.02734ZM7.94531 2.91797H8.64844V4.32422H7.94531C7.55761 4.32422 7.24219 4.0088 7.24219 3.62109C7.24219 3.23339 7.55761 2.91797 7.94531 2.91797Z" fill="#01A0AC"/>
<path d="M12.5156 8.75391H5.48438C5.29021 8.75391 5.13281 8.9113 5.13281 9.10547V15.4336C5.13281 15.6278 5.29021 15.7852 5.48438 15.7852H12.5156C12.7098 15.7852 12.8672 15.6278 12.8672 15.4336V9.10547C12.8672 8.9113 12.7098 8.75391 12.5156 8.75391ZM12.1641 15.082H5.83594V9.45703H12.1641V15.082Z" fill="#01A0AC"/>
<path d="M7.59375 11.5664H10.4062C10.6004 11.5664 10.7578 11.409 10.7578 11.2148C10.7578 11.0207 10.6004 10.8633 10.4062 10.8633H7.59375C7.39958 10.8633 7.24219 11.0207 7.24219 11.2148C7.24219 11.409 7.39958 11.5664 7.59375 11.5664Z" fill="#01A0AC"/>
<path d="M7.59375 13.6758H10.4062C10.6004 13.6758 10.7578 13.5184 10.7578 13.3242C10.7578 13.1301 10.6004 12.9727 10.4062 12.9727H7.59375C7.39958 12.9727 7.24219 13.1301 7.24219 13.3242C7.24219 13.5184 7.39958 13.6758 7.59375 13.6758Z" fill="#01A0AC"/>
</svg>
